<svg width="26" height="26" viewBox="0 0 26 26" fill="none" xmlns="http://www.w3.org/2000/svg">
<path d="M24.083 11.4166H14.583V1.9166C14.583 1.49667 14.4162 1.09395 14.1193 0.797015C13.8223 0.500083 13.4196 0.333267 12.9997 0.333267C12.5797 0.333267 12.177 0.500083 11.8801 0.797015C11.5832 1.09395 11.4163 1.49667 11.4163 1.9166V11.4166H1.91634C1.49642 11.4166 1.09369 11.5834 0.796756 11.8803C0.499823 12.1773 0.333008 12.58 0.333008 12.9999C0.333008 13.4199 0.499823 13.8226 0.796756 14.1195C1.09369 14.4165 1.49642 14.5833 1.91634 14.5833H11.4163V24.0833C11.4163 24.5032 11.5832 24.9059 11.8801 25.2029C12.177 25.4998 12.5797 25.6666 12.9997 25.6666C13.4196 25.6666 13.8223 25.4998 14.1193 25.2029C14.4162 24.9059 14.583 24.5032 14.583 24.0833V14.5833H24.083C24.5029 14.5833 24.9057 14.4165 25.2026 14.1195C25.4995 13.8226 25.6663 13.4199 25.6663 12.9999C25.6663 12.58 25.4995 12.1773 25.2026 11.8803C24.9057 11.5834 24.5029 11.4166 24.083 11.4166Z" fill="#36A1EA"/>
</svg>
