<svg
                  width="20"
                  height="25"
                  viewBox="0 0 20 25"
                  fill="none"
                  xmlns="http://www.w3.org/2000/svg"
                >
                  <path
                    d="M13.5 3.33334H18C18.9 3.33334 19.5 3.93334 19.5 4.83334V6.33334H0V4.83334C0 3.93334 0.75 3.33334 1.5 3.33334H6C6.3 1.68334 7.95 0.333344 9.75 0.333344C11.55 0.333344 13.2 1.68334 13.5 3.33334ZM7.5 3.33334H12C11.7 2.43334 10.65 1.83334 9.75 1.83334C8.85 1.83334 7.8 2.43334 7.5 3.33334ZM1.5 7.83334H18L16.65 22.9833C16.65 23.7333 15.9 24.3333 15.15 24.3333H4.35C3.6 24.3333 3 23.7333 2.85 22.9833L1.5 7.83334Z"
                    fill="#fff"
                  />
                  <rect
                    x="5.11426"
                    y="10.2751"
                    width="1.47906"
                    height="10.3534"
                    rx="0.739528"
                    fill="#F56666"
                  />
                  <rect
                    x="9.18164"
                    y="10.2751"
                    width="1.47906"
                    height="10.3534"
                    rx="0.739528"
                    fill="#F56666"
                  />
                  <rect
                    x="13.248"
                    y="10.2751"
                    width="1.47906"
                    height="10.3534"
                    rx="0.739528"
                    fill="#F56666"
                  />
                </svg>