<svg width="22" height="25" viewBox="0 0 22 25" fill="none" xmlns="http://www.w3.org/2000/svg">
<path d="M21.7714 23.1579V24.885H0.0243256V23.1579C0.0243256 22.8503 0.276151 22.5984 0.583813 22.5984H1.53251H1.55684V22.5741V1.16763C1.55684 0.534002 2.06651 0.0243256 2.70014 0.0243256H19.0956C19.7292 0.0243256 20.2389 0.534001 20.2389 1.16763V22.5741V22.5984H20.2632H21.2119C21.5195 22.5984 21.7714 22.8503 21.7714 23.1579ZM3.84344 22.5254L3.84341 22.5498H3.86776H9.34101H9.36534V22.5255V19.2658C9.36534 18.9582 9.61716 18.7064 9.92482 18.7064H11.8709C12.1785 18.7064 12.4304 18.9582 12.4304 19.2658V22.5255V22.5498H12.4547H17.9279H17.9523V22.5255V2.3839V2.35966L17.928 2.35958L3.89217 2.31093L3.86779 2.31084L3.86776 2.33522L3.84344 22.5254ZM6.25167 7.20036V5.25432C6.25167 4.94666 6.50349 4.69483 6.81115 4.69483H8.7572C9.06486 4.69483 9.31669 4.94666 9.31669 5.25432V7.20036C9.31669 7.50803 9.06486 7.75985 8.7572 7.75985H6.81115C6.50349 7.75985 6.25167 7.50803 6.25167 7.20036ZM14.9845 7.75985H13.0385C12.7308 7.75985 12.479 7.50803 12.479 7.20036V5.25432C12.479 4.94666 12.7308 4.69483 13.0385 4.69483H14.9845C15.2922 4.69483 15.544 4.94666 15.544 5.25432V7.20036C15.544 7.50803 15.2922 7.75985 14.9845 7.75985ZM8.7572 12.4304H6.81115C6.50349 12.4304 6.25167 12.1785 6.25167 11.8709V9.92483C6.25167 9.61716 6.50349 9.36534 6.81115 9.36534H8.7572C9.06486 9.36534 9.31669 9.61716 9.31669 9.92483V11.8709C9.31669 12.1785 9.06486 12.4304 8.7572 12.4304ZM14.9845 12.4304H13.0385C12.7308 12.4304 12.479 12.1785 12.479 11.8709V9.92483C12.479 9.61716 12.7308 9.36534 13.0385 9.36534H14.9845C15.2922 9.36534 15.544 9.61716 15.544 9.92483V11.8709C15.544 12.1785 15.2922 12.4304 14.9845 12.4304ZM9.31669 14.5953V16.5414C9.31669 16.849 9.06486 17.1009 8.7572 17.1009H6.81115C6.50349 17.1009 6.25167 16.849 6.25167 16.5414V14.5953C6.25167 14.2877 6.50349 14.0358 6.81115 14.0358H8.7572C9.06486 14.0358 9.31669 14.2877 9.31669 14.5953ZM14.9845 17.1009H13.0385C12.7308 17.1009 12.479 16.849 12.479 16.5414V14.5953C12.479 14.2877 12.7308 14.0358 13.0385 14.0358H14.9845C15.2922 14.0358 15.544 14.2877 15.544 14.5953V16.5414C15.544 16.849 15.2922 17.1009 14.9845 17.1009Z" fill="white" stroke="white" stroke-width="0.0486511"/>
</svg>
