<svg width="22" height="22" viewBox="0 0 22 22" fill="none" xmlns="http://www.w3.org/2000/svg">
<path d="M22 6.28571V18.0714C22 20.1544 20.3791 21.8586 18.3297 21.9916L18.0714 22H3.92857C1.84565 22 0.141367 20.379 0.00835637 18.3297L0 18.0714V6.28571H22ZM6.28571 14.1429C5.41784 14.1429 4.71429 14.8464 4.71429 15.7143C4.71429 16.5822 5.41784 17.2857 6.28571 17.2857C7.15359 17.2857 7.85714 16.5822 7.85714 15.7143C7.85714 14.8464 7.15359 14.1429 6.28571 14.1429ZM11 14.1429C10.1321 14.1429 9.42857 14.8464 9.42857 15.7143C9.42857 16.5822 10.1321 17.2857 11 17.2857C11.8679 17.2857 12.5714 16.5822 12.5714 15.7143C12.5714 14.8464 11.8679 14.1429 11 14.1429ZM6.28571 9.42857C5.41784 9.42857 4.71429 10.1321 4.71429 11C4.71429 11.8679 5.41784 12.5714 6.28571 12.5714C7.15359 12.5714 7.85714 11.8679 7.85714 11C7.85714 10.1321 7.15359 9.42857 6.28571 9.42857ZM11 9.42857C10.1321 9.42857 9.42857 10.1321 9.42857 11C9.42857 11.8679 10.1321 12.5714 11 12.5714C11.8679 12.5714 12.5714 11.8679 12.5714 11C12.5714 10.1321 11.8679 9.42857 11 9.42857ZM15.7143 9.42857C14.8464 9.42857 14.1429 10.1321 14.1429 11C14.1429 11.8679 14.8464 12.5714 15.7143 12.5714C16.5822 12.5714 17.2857 11.8679 17.2857 11C17.2857 10.1321 16.5822 9.42857 15.7143 9.42857ZM18.0714 0C20.1544 0 21.8586 1.62097 21.9916 3.67026L22 3.92857V4.71429H0V3.92857C0 1.84567 1.62098 0.141368 3.67027 0.00835637L3.92857 0H18.0714Z" fill="#ACAFB6"/>
</svg>
