<svg
              width="25"
              height="25"
              viewBox="0 0 25 25"
              fill="none"
              xmlns="http://www.w3.org/2000/svg"
            >
              <path
                d="M14.8661 3.83231L21.1674 10.1336L20.4038 10.8982C19.3209 10.3605 18.1004 10.0582 16.8094 10.0582C12.3397 10.0582 8.71649 13.6814 8.71649 18.1511C8.71649 19.442 9.01873 20.6623 9.55632 21.7451L8.79368 22.5072C8.44895 22.8518 8.02023 23.1007 7.54989 23.2289L1.18053 24.9661C0.483451 25.1562 -0.156175 24.5165 0.0339336 23.8195L1.77103 17.4501C1.89931 16.9797 2.1481 16.551 2.49284 16.2063L14.8661 3.83231ZM16.8094 11.3032C17.1743 11.3032 17.5323 11.3337 17.8812 11.3925L18.0969 12.2841C18.4194 13.621 19.7646 14.4434 21.1015 14.1209L21.2233 14.0883L21.9717 13.8656C22.423 14.447 22.7846 15.1064 23.0345 15.8209L22.4777 16.3567C21.5388 17.2601 21.4621 18.7224 22.2674 19.7165L22.4434 19.9119L23.0345 20.4812C22.7848 21.1953 22.4235 21.8542 21.9726 22.4353L21.2233 22.2138C19.9044 21.8241 18.5192 22.5774 18.1295 23.8963L18.0969 24.0181L17.8812 24.9095C17.5323 24.9684 17.1743 24.9989 16.8094 24.9989C16.4441 24.9989 16.0858 24.9683 15.7365 24.9094L15.5219 24.0181C15.1994 22.6811 13.8542 21.8588 12.5173 22.1812L12.3955 22.2138L11.6462 22.4353C11.1953 21.8542 10.834 21.1953 10.5843 20.4812L11.1411 19.9455C12.1322 18.9919 12.1625 17.4155 11.209 16.4246L11.1411 16.3567L10.5843 15.8209C10.834 15.1069 11.1953 14.448 11.6462 13.8668L12.3955 14.0883C13.7144 14.478 15.0996 13.7248 15.4893 12.4059L15.5219 12.2841L15.7365 11.3927C16.0858 11.3339 16.4441 11.3032 16.8094 11.3032ZM16.8094 16.2835C15.8126 16.2835 15.0044 17.1197 15.0044 18.1511C15.0044 19.1825 15.8126 20.0187 16.8094 20.0187C17.8062 20.0187 18.6144 19.1825 18.6144 18.1511C18.6144 17.1197 17.8062 16.2835 16.8094 16.2835ZM23.695 1.30495C25.435 3.04488 25.435 5.86586 23.695 7.6058L22.4871 8.81257L16.1859 2.51254L17.3942 1.30495C19.1341 -0.434985 21.9551 -0.434985 23.695 1.30495Z"
                fill="#36A1EA"
              />
            </svg>

