<svg
                      width="21"
                      height="21"
                      viewBox="0 0 21 21"
                      fill="none"
                      xmlns="http://www.w3.org/2000/svg"
                    >
                      <path
                        d="M12.3884 3.19359L17.6395 8.44468L17.0031 9.08184C16.1008 8.63372 15.0837 8.3818 14.0078 8.3818C10.2831 8.3818 7.26374 11.4012 7.26374 15.1259C7.26374 16.2016 7.5156 17.2185 7.9636 18.1209L7.32807 18.756C7.04079 19.0432 6.68353 19.2506 6.29157 19.3575L0.983771 20.8051C0.402876 20.9635 -0.130146 20.4304 0.028278 19.8496L1.47586 14.5418C1.58276 14.1498 1.79009 13.7925 2.07736 13.5052L12.3884 3.19359ZM14.0078 9.41936C14.3119 9.41936 14.6102 9.44478 14.901 9.49375L15.0808 10.2367C15.3495 11.3509 16.4705 12.0362 17.5846 11.7674L17.6861 11.7403L18.3097 11.5546C18.6859 12.0392 18.9872 12.5887 19.1954 13.1841L18.7314 13.6306C17.949 14.3834 17.8851 15.602 18.5562 16.4304L18.7029 16.5932L19.1954 17.0677C18.9874 17.6627 18.6863 18.2118 18.3105 18.6961L17.6861 18.5115C16.587 18.1868 15.4327 18.8145 15.108 19.9136L15.0808 20.0151L14.901 20.7579C14.6102 20.807 14.3119 20.8324 14.0078 20.8324C13.7034 20.8324 13.4048 20.8069 13.1138 20.7578L12.9349 20.0151C12.6662 18.9009 11.5452 18.2156 10.4311 18.4844L10.3296 18.5115L9.70521 18.6961C9.3294 18.2118 9.02831 17.6627 8.82028 17.0677L9.28427 16.6212C10.1102 15.8266 10.1354 14.5129 9.34082 13.6871L9.28427 13.6306L8.82028 13.1841C9.02831 12.5891 9.3294 12.04 9.70521 11.5557L10.3296 11.7403C11.4287 12.065 12.583 11.4373 12.9077 10.3382L12.9349 10.2367L13.1138 9.49396C13.4048 9.44488 13.7034 9.41936 14.0078 9.41936ZM14.0078 13.5696C13.1772 13.5696 12.5037 14.2664 12.5037 15.1259C12.5037 15.9854 13.1772 16.6822 14.0078 16.6822C14.8385 16.6822 15.512 15.9854 15.512 15.1259C15.512 14.2664 14.8385 13.5696 14.0078 13.5696ZM19.7458 1.08746C21.1958 2.5374 21.1958 4.88822 19.7458 6.33817L18.7393 7.34381L13.4882 2.09379L14.4952 1.08746C15.9451 -0.362487 18.2959 -0.362487 19.7458 1.08746Z"
                        fill="#1A3C54"
                      />
                    </svg>