<svg width="60" height="62" viewBox="0 0 60 62" fill="none" xmlns="http://www.w3.org/2000/svg">
<g filter="url(#filter0_d_204_3603)">
<path d="M18.4457 38.5371C18.3257 38.1771 18 37.9372 17.6229 37.9372H13.4229C6 37.9372 0 43.9543 0 51.36V57.3257C0 58.4229 0.891429 59.3314 2.00571 59.3314H24.0514C24.6343 59.3314 25.0457 58.7657 24.8743 58.2171L18.4629 38.5543L18.4457 38.5371ZM46.2514 37.9372H42.0686C41.6914 37.9372 41.3657 38.1771 41.2457 38.5371L34.8343 58.2C34.6457 58.7486 35.0743 59.3143 35.6571 59.3143H57.6857C58.7829 59.3143 59.6914 58.4229 59.6914 57.3086V51.3429C59.6914 43.92 53.6743 37.92 46.2686 37.92L46.2514 37.9372ZM46.32 16.4743C46.32 7.37143 38.9486 0 29.8457 0C20.7429 0 13.3714 7.37143 13.3714 16.4743C13.3714 25.5771 20.7429 32.9486 29.8457 32.9486C38.9486 32.9486 46.32 25.5771 46.32 16.4743Z" fill="#028EE6"/>
<path d="M29.846 38.3998C28.4231 38.3998 27.2746 39.5484 27.2746 40.9713V54.6856C27.2746 56.1084 28.4231 57.257 29.846 57.257C31.2689 57.257 32.4174 56.1084 32.4174 54.6856V40.9713C32.4174 39.5484 31.2689 38.3998 29.846 38.3998Z" fill="#1A3C54"/>
<circle cx="30" cy="17" r="17" fill="white"/>
<circle cx="30" cy="17" r="16.5" stroke="#028EE6" stroke-opacity="0.5"/>
</g>
<defs>
<filter id="filter0_d_204_3603" x="0" y="0" width="60" height="62" filterUnits="userSpaceOnUse" color-interpolation-filters="sRGB">
<feFlood flood-opacity="0" result="BackgroundImageFix"/>
<feColorMatrix in="SourceAlpha" type="matrix" values="0 0 0 0 0 0 0 0 0 0 0 0 0 0 0 0 0 0 127 0" result="hardAlpha"/>
<feOffset dy="2"/>
<feComposite in2="hardAlpha" operator="out"/>
<feColorMatrix type="matrix" values="0 0 0 0 0.00784314 0 0 0 0 0.556863 0 0 0 0 0.901961 0 0 0 0.5 0"/>
<feBlend mode="normal" in2="BackgroundImageFix" result="effect1_dropShadow_204_3603"/>
<feBlend mode="normal" in="SourceGraphic" in2="effect1_dropShadow_204_3603" result="shape"/>
</filter>
</defs>
</svg>
