<svg width="60" height="60" viewBox="0 0 60 60" fill="none" xmlns="http://www.w3.org/2000/svg">
<rect width="60" height="60" fill="#F1F5F9"/>
<g filter="url(#filter0_d_204_3628)">
<path d="M5.85366 8.78048H43.9024H49.7561V5.85365C49.7561 4.24389 48.439 2.92682 46.8293 2.92682H2.92683C1.31707 2.92682 0 4.24389 0 5.85365V39.5122C0 41.1219 1.31707 42.439 2.92683 42.439H20.239L19.2585 48.2927H13.8878C12.6732 48.2927 11.6927 49.2732 11.6927 50.4878C11.6927 51.7024 12.6732 52.6829 13.8878 52.6829H28.5219V36.5854H5.83901V8.78048H5.85366ZM54.1463 12.439H38.0488C34.8146 12.439 32.1951 15.0585 32.1951 18.2927V50.4878C32.1951 53.7219 34.8146 56.3415 38.0488 56.3415H54.1463C57.3805 56.3415 60 53.7219 60 50.4878V18.2927C60 15.0585 57.3805 12.439 54.1463 12.439ZM47.1951 52.6829H45C43.7854 52.6829 42.8049 51.7024 42.8049 50.4878C42.8049 49.2732 43.7854 48.2927 45 48.2927H47.1951C48.4098 48.2927 49.3902 49.2732 49.3902 50.4878C49.3902 51.7024 48.4098 52.6829 47.1951 52.6829ZM55.3464 43.7415C55.3464 44.5463 54.6878 45.2049 53.8829 45.2049H38.3268C37.522 45.2049 36.8634 44.5463 36.8634 43.7415V20.0927C36.8634 19.2878 37.522 18.6293 38.3268 18.6293H53.8829C54.6878 18.6293 55.3464 19.2878 55.3464 20.0927V43.7415Z" fill="#1A3C54"/>
<path d="M26.7218 14.6342H25.0681C24.6145 14.6342 24.2486 15.0001 24.2486 15.4537V16.6684C24.2486 17.0342 23.9998 17.3562 23.634 17.4586C23.2389 17.5903 22.8437 17.7513 22.4779 17.9415C22.1559 18.1025 21.7608 18.0732 21.4974 17.8098L20.634 16.9464C20.312 16.6245 19.7852 16.6245 19.4632 16.9464L18.2925 18.1172C17.9706 18.4391 17.9706 18.9659 18.2925 19.2879L19.1559 20.1513C19.4193 20.4147 19.4486 20.7952 19.2876 21.1318C19.0974 21.4976 18.9364 21.8781 18.8047 22.2879C18.6877 22.6391 18.3803 22.9025 18.0145 22.9025H16.7999C16.3462 22.9025 15.9803 23.2684 15.9803 23.722V25.3757C15.9803 25.8293 16.3462 26.1952 16.7999 26.1952H18.0145C18.3803 26.1952 18.7023 26.444 18.8047 26.8098C18.9364 27.205 19.0974 27.6001 19.2876 27.9659C19.4486 28.2879 19.4193 28.683 19.1559 28.9464L18.2925 29.8098C17.9706 30.1318 17.9706 30.6586 18.2925 30.9806L19.4632 32.1513C19.7852 32.4732 20.312 32.4732 20.634 32.1513L21.4974 31.2879C21.7608 31.0245 22.1413 30.9952 22.4779 31.1562C22.8437 31.3464 23.2242 31.5074 23.634 31.6391C23.9852 31.7562 24.2486 32.0635 24.2486 32.4293V33.644C24.2486 34.0976 24.6145 34.4635 25.0681 34.4635H26.7218C27.1755 34.4635 27.5413 34.0976 27.5413 33.644V28.3464C27.0291 28.5659 26.473 28.6976 25.8876 28.6976C23.6047 28.6976 21.7608 26.8537 21.7608 24.5708C21.7608 22.2879 23.6047 20.444 25.8876 20.444C26.473 20.444 27.0291 20.5757 27.5413 20.7952V15.4976C27.5413 15.044 27.1755 14.6781 26.7218 14.6781V14.6342ZM50.1364 30.2049H48.9218C48.5559 30.2049 48.234 29.9562 48.1316 29.5903C47.9999 29.1952 47.8389 28.8001 47.6486 28.4342C47.4876 28.1123 47.5169 27.7171 47.7803 27.4537L48.6437 26.5903C48.9657 26.2684 48.9657 25.7415 48.6437 25.4196L47.473 24.2489C47.1511 23.9269 46.6243 23.9269 46.3023 24.2489L45.4388 25.1123C45.1754 25.3757 44.795 25.4049 44.4584 25.244C44.0925 25.0537 43.712 24.8928 43.3023 24.761C42.9511 24.644 42.6877 24.3367 42.6877 23.9708V22.7562C42.6877 22.3025 42.3218 21.9367 41.8681 21.9367H40.2145C39.7608 21.9367 39.395 22.3025 39.395 22.7562V28.0537C39.9072 27.8342 40.4632 27.7025 41.0486 27.7025C43.3315 27.7025 45.1754 29.5464 45.1754 31.8293C45.1754 34.1123 43.3315 35.9562 41.0486 35.9562C40.4632 35.9562 39.9072 35.8245 39.395 35.605V40.9025C39.395 41.3562 39.7608 41.722 40.2145 41.722H41.8681C42.3218 41.722 42.6877 41.3562 42.6877 40.9025V39.6879C42.6877 39.322 42.9364 39.0001 43.3023 38.8976C43.6974 38.7659 44.0925 38.6049 44.4584 38.4147C44.7803 38.2391 45.1754 38.283 45.4388 38.5464L46.3023 39.4098C46.6243 39.7318 47.1511 39.7318 47.473 39.4098L48.6437 38.2391C48.9657 37.9172 48.9657 37.3903 48.6437 37.0684L47.7803 36.205C47.5169 35.9415 47.4876 35.5611 47.6486 35.2245C47.8389 34.8586 47.9999 34.4781 48.1316 34.0684C48.2486 33.7171 48.5559 33.4537 48.9218 33.4537H50.1364C50.5901 33.4537 50.9559 33.0879 50.9559 32.6342V30.9806C50.9559 30.5269 50.5901 30.161 50.1364 30.161V30.2049Z" fill="#FEB51F"/>
</g>
<defs>
<filter id="filter0_d_204_3628" x="0" y="2.92682" width="60" height="55.4146" filterUnits="userSpaceOnUse" color-interpolation-filters="sRGB">
<feFlood flood-opacity="0" result="BackgroundImageFix"/>
<feColorMatrix in="SourceAlpha" type="matrix" values="0 0 0 0 0 0 0 0 0 0 0 0 0 0 0 0 0 0 127 0" result="hardAlpha"/>
<feOffset dy="2"/>
<feComposite in2="hardAlpha" operator="out"/>
<feColorMatrix type="matrix" values="0 0 0 0 0.00784314 0 0 0 0 0.556863 0 0 0 0 0.901961 0 0 0 0.5 0"/>
<feBlend mode="normal" in2="BackgroundImageFix" result="effect1_dropShadow_204_3628"/>
<feBlend mode="normal" in="SourceGraphic" in2="effect1_dropShadow_204_3628" result="shape"/>
</filter>
</defs>
</svg>
