<svg width="35" height="35" viewBox="0 0 29 29" fill="none" xmlns="http://www.w3.org/2000/svg">
<path fill-rule="evenodd" clip-rule="evenodd" d="M18.4526 3.62598L23.1079 8.28691H19.2849C18.8272 8.28691 18.4526 7.9124 18.4526 7.45463L18.4526 3.62598Z" fill="#80CBC4"/>
<path fill-rule="evenodd" clip-rule="evenodd" d="M6.44089 3.62598H18.4543V7.43148C18.4543 7.90199 18.8392 8.28691 19.3097 8.28691H23.1095V19.8252C23.1095 20.1367 22.8547 20.3916 22.5431 20.3916H6.44091C6.12938 20.3916 5.87451 20.1367 5.87451 19.8252V4.1924C5.87451 3.88087 6.12938 3.626 6.44091 3.626L6.44089 3.62598Z" fill="#B2DFDB"/>
<path d="M9.51416 10.6992H19.936V11.6055H9.51416V10.6992Z" fill="#00897B"/>
<path d="M9.51416 13.8711H19.936V14.7774H9.51416V13.8711Z" fill="#00897B"/>
<path fill-rule="evenodd" clip-rule="evenodd" d="M4.77564 17.252H24.2205C24.5373 17.252 24.8256 17.3827 25.0349 17.5933C25.2436 17.8034 25.3731 18.0923 25.3731 18.4092V23.9933C25.3731 24.3102 25.2435 24.5991 25.0349 24.8092C24.8256 25.0198 24.5373 25.1506 24.2205 25.1506H4.77564C4.45884 25.1506 4.17051 25.0198 3.96127 24.8092C3.7526 24.5991 3.62305 24.3103 3.62305 23.9933V18.4092C3.62305 18.0923 3.7526 17.8034 3.96127 17.5933C4.17048 17.3827 4.45881 17.252 4.77564 17.252Z" fill="#00897B"/>
<path d="M5.25903 23.7324L6.99129 21.088L5.42189 18.6643H6.61723L7.6344 20.2927L8.62917 18.6643H9.81507L8.23858 21.1258L9.97084 23.7324H8.73654L7.61317 21.9801L6.48627 23.7324H5.25905H5.25903ZM10.5243 23.7324V18.7056H11.5473V22.8781H14.0914V23.7324H10.5243ZM14.5623 22.0839L15.5582 21.986C15.6172 22.3211 15.7387 22.5666 15.9228 22.7235C16.1057 22.8793 16.3523 22.9583 16.6639 22.9583C16.9931 22.9583 17.2421 22.8887 17.4084 22.7483C17.576 22.609 17.6598 22.4462 17.6598 22.2598C17.6598 22.1394 17.6244 22.0379 17.5536 21.9541C17.484 21.8692 17.3612 21.796 17.1854 21.7347C17.0662 21.6922 16.7925 21.619 16.3665 21.5128C15.8178 21.3771 15.4331 21.2095 15.2125 21.0113C14.9009 20.7328 14.7452 20.393 14.7452 19.9918C14.7452 19.7333 14.8183 19.4926 14.9646 19.2672C15.111 19.043 15.3222 18.8719 15.5971 18.7539C15.8733 18.6371 16.2048 18.5781 16.5942 18.5781C17.2314 18.5781 17.7094 18.7174 18.0315 18.9958C18.3525 19.2755 18.5212 19.6472 18.5377 20.1133L17.5146 20.1581C17.471 19.8974 17.3766 19.7097 17.2326 19.5965C17.0887 19.482 16.8727 19.4254 16.5848 19.4254C16.2874 19.4254 16.0538 19.4856 15.8862 19.6083C15.7777 19.6861 15.7234 19.7912 15.7234 19.9221C15.7234 20.0425 15.7741 20.1452 15.8756 20.2301C16.0042 20.3387 16.3181 20.452 16.8161 20.5688C17.314 20.6868 17.6822 20.8083 17.9206 20.9334C18.1589 21.0597 18.3454 21.2308 18.4811 21.4491C18.6156 21.6674 18.6829 21.9364 18.6829 22.2562C18.6829 22.5465 18.6026 22.8191 18.441 23.0716C18.2793 23.3253 18.0516 23.5141 17.7565 23.6368C17.4615 23.7607 17.0934 23.8221 16.6532 23.8221C16.0125 23.8221 15.5204 23.6746 15.177 23.3784C14.8337 23.0822 14.6283 22.6503 14.5623 22.0839ZM19.0286 23.7324L20.7609 21.088L19.1915 18.6643H20.3868L21.404 20.2927L22.3987 18.6643H23.5847L22.0082 21.1258L23.7404 23.7324H22.5061L21.3827 21.9801L20.2558 23.7324H19.0286Z" fill="white"/>
</svg>
