<svg width="60" height="60" viewBox="0 0 60 60" fill="none" xmlns="http://www.w3.org/2000/svg">
<g filter="url(#filter0_d_204_3616)">
<path d="M50.2703 3.24326H43.7838C42 3.24326 40.5405 4.70272 40.5405 6.4865C40.5405 8.27028 39.0811 9.72974 37.2973 9.72974C35.5135 9.72974 34.0541 8.27028 34.0541 6.4865C34.0541 4.70272 32.5946 3.24326 30.8108 3.24326H22.7027C20.9189 3.24326 19.4595 4.70272 19.4595 6.4865C19.4595 8.27028 18 9.72974 16.2162 9.72974C14.4324 9.72974 12.973 8.27028 12.973 6.4865C12.973 4.70272 11.5135 3.24326 9.72973 3.24326H3.24324C1.45946 3.24326 0 4.70272 0 6.4865V47.027C0 48.8108 1.45946 50.2703 3.24324 50.2703H27.827C26.9676 48.0973 26.4649 45.7459 26.4649 43.2649C26.4649 32.8054 34.9459 24.3243 45.4054 24.3243C48.3081 24.3243 51.0486 25.0054 53.5135 26.173V6.4865C53.5135 4.70272 52.0541 3.24326 50.2703 3.24326ZM9.72973 42.4541C7.94595 42.4541 6.48649 40.9946 6.48649 39.2108C6.48649 37.427 7.94595 35.9676 9.72973 35.9676C11.5135 35.9676 12.973 37.427 12.973 39.2108C12.973 40.9946 11.5135 42.4541 9.72973 42.4541ZM9.72973 32.7243C7.94595 32.7243 6.48649 31.2649 6.48649 29.4811C6.48649 27.6973 7.94595 26.2378 9.72973 26.2378C11.5135 26.2378 12.973 27.6973 12.973 29.4811C12.973 31.2649 11.5135 32.7243 9.72973 32.7243ZM19.4595 42.4541C17.6757 42.4541 16.2162 40.9946 16.2162 39.2108C16.2162 37.427 17.6757 35.9676 19.4595 35.9676C21.2432 35.9676 22.7027 37.427 22.7027 39.2108C22.7027 40.9946 21.2432 42.4541 19.4595 42.4541ZM19.4595 32.7243C17.6757 32.7243 16.2162 31.2649 16.2162 29.4811C16.2162 27.6973 17.6757 26.2378 19.4595 26.2378C21.2432 26.2378 22.7027 27.6973 22.7027 29.4811C22.7027 31.2649 21.2432 32.7243 19.4595 32.7243ZM19.4595 22.9946C17.6757 22.9946 16.2162 21.5351 16.2162 19.7514C16.2162 17.9676 17.6757 16.5081 19.4595 16.5081C21.2432 16.5081 22.7027 17.9676 22.7027 19.7514C22.7027 21.5351 21.2432 22.9946 19.4595 22.9946ZM29.1892 22.9946C27.4054 22.9946 25.9459 21.5351 25.9459 19.7514C25.9459 17.9676 27.4054 16.5081 29.1892 16.5081C30.973 16.5081 32.4324 17.9676 32.4324 19.7514C32.4324 21.5351 30.973 22.9946 29.1892 22.9946Z" fill="#63C0F9"/>
<path d="M45.4054 28.6703C37.346 28.6703 30.8108 35.2054 30.8108 43.2649C30.8108 51.3243 37.346 57.8594 45.4054 57.8594C53.4649 57.8594 60 51.3243 60 43.2649C60 35.2054 53.4649 28.6703 45.4054 28.6703ZM47.4324 44.0757C47.4324 45.1946 46.5243 46.1027 45.4054 46.1027H37.2973C36.1784 46.1027 35.2703 45.1946 35.2703 44.0757C35.2703 42.9567 36.1784 42.0486 37.2973 42.0486H43.3784V34.3459C43.3784 33.227 44.2865 32.3189 45.4054 32.3189C46.5243 32.3189 47.4324 33.227 47.4324 34.3459V44.0757Z" fill="#FEB51F"/>
</g>
<defs>
<filter id="filter0_d_204_3616" x="0" y="0" width="60" height="62" filterUnits="userSpaceOnUse" color-interpolation-filters="sRGB">
<feFlood flood-opacity="0" result="BackgroundImageFix"/>
<feColorMatrix in="SourceAlpha" type="matrix" values="0 0 0 0 0 0 0 0 0 0 0 0 0 0 0 0 0 0 127 0" result="hardAlpha"/>
<feOffset dy="2"/>
<feComposite in2="hardAlpha" operator="out"/>
<feColorMatrix type="matrix" values="0 0 0 0 0.00784314 0 0 0 0 0.556863 0 0 0 0 0.901961 0 0 0 0.5 0"/>
<feBlend mode="normal" in2="BackgroundImageFix" result="effect1_dropShadow_204_3616"/>
<feBlend mode="normal" in="SourceGraphic" in2="effect1_dropShadow_204_3616" result="shape"/>
</filter>
</defs>
</svg>

