<svg xmlns="http://www.w3.org/2000/svg" width="20" height="20" viewBox="0 0 20 20" fill="none">
  <path d="M10.0003 1.66669C8.35215 1.66669 6.74099 2.15543 5.37058 3.07111C4.00017 3.98679 2.93206 5.28827 2.30133 6.81099C1.6706 8.33371 1.50558 10.0093 1.82712 11.6258C2.14866 13.2423 2.94234 14.7271 4.10777 15.8926C5.27321 17.058 6.75807 17.8517 8.37458 18.1732C9.99109 18.4948 11.6666 18.3297 13.1894 17.699C14.7121 17.0683 16.0136 16.0002 16.9292 14.6298C17.8449 13.2594 18.3337 11.6482 18.3337 10C18.3337 8.90567 18.1181 7.82204 17.6993 6.81099C17.2805 5.79994 16.6667 4.88128 15.8929 4.10746C15.1191 3.33364 14.2004 2.71981 13.1894 2.30102C12.1783 1.88224 11.0947 1.66669 10.0003 1.66669ZM10.8337 13.3334C10.8337 13.5544 10.7459 13.7663 10.5896 13.9226C10.4333 14.0789 10.2213 14.1667 10.0003 14.1667C9.77931 14.1667 9.56735 14.0789 9.41107 13.9226C9.25479 13.7663 9.167 13.5544 9.167 13.3334V9.16669C9.167 8.94567 9.25479 8.73371 9.41107 8.57743C9.56735 8.42115 9.77931 8.33335 10.0003 8.33335C10.2213 8.33335 10.4333 8.42115 10.5896 8.57743C10.7459 8.73371 10.8337 8.94567 10.8337 9.16669V13.3334ZM10.0003 7.50002C9.83551 7.50002 9.67439 7.45115 9.53735 7.35958C9.40031 7.26801 9.2935 7.13786 9.23043 6.98559C9.16736 6.83332 9.15085 6.66576 9.18301 6.50411C9.21516 6.34246 9.29453 6.19397 9.41107 6.07743C9.52762 5.96089 9.6761 5.88152 9.83775 5.84937C9.9994 5.81721 10.167 5.83371 10.3192 5.89679C10.4715 5.95986 10.6017 6.06667 10.6932 6.20371C10.7848 6.34075 10.8337 6.50187 10.8337 6.66669C10.8337 6.8877 10.7459 7.09966 10.5896 7.25594C10.4333 7.41222 10.2213 7.50002 10.0003 7.50002Z" fill="#1A3C54"/>
</svg>