<svg
                    class="ml-0.5"
                    width="21"
                    height="21"
                    viewBox="0 0 21 21"
                    fill="none"
                    xmlns="http://www.w3.org/2000/svg"
                  >
                    <path
                      d="M15.9629 11.1739C14.9632 11.1704 13.9848 11.4634 13.1516 12.0159C12.3184 12.5684 11.6678 13.3556 11.282 14.2779C10.8961 15.2002 10.7925 16.2162 10.9841 17.1974C11.1757 18.1786 11.6539 19.081 12.3584 19.7904C13.0628 20.4998 13.9618 20.9843 14.9416 21.1828C15.9215 21.3813 16.9382 21.2848 17.8632 20.9054C18.7881 20.5261 19.5799 19.881 20.1382 19.0517C20.6966 18.2224 20.9965 17.2461 21 16.2464C20.9981 14.9078 20.468 13.624 19.5248 12.6741C18.5815 11.7242 17.3015 11.1851 15.9629 11.1739ZM16.8497 16.6721C16.7164 16.6723 16.5842 16.6483 16.4595 16.6011L14.544 18.5166C14.4399 18.6213 14.3011 18.6843 14.1538 18.694C13.9764 18.694 13.8346 18.6585 13.7636 18.5166C13.6603 18.3989 13.6034 18.2476 13.6034 18.091C13.6034 17.9343 13.6603 17.7831 13.7636 17.6653L15.6791 15.7498C15.607 15.5199 15.5882 15.2766 15.6242 15.0384C15.6602 14.8002 15.75 14.5733 15.8867 14.375C16.0235 14.1767 16.2037 14.0121 16.4136 13.8939C16.6234 13.7756 16.8575 13.7067 17.098 13.6924C17.2313 13.6921 17.3635 13.7162 17.4882 13.7633C17.5591 13.7633 17.5591 13.8343 17.5237 13.9052L16.6369 14.7566C16.62 14.7687 16.6063 14.7847 16.5968 14.8032C16.5874 14.8217 16.5824 14.8422 16.5824 14.863C16.5824 14.8838 16.5874 14.9042 16.5968 14.9227C16.6063 14.9412 16.62 14.9572 16.6369 14.9694L17.2044 15.537C17.2204 15.5539 17.2396 15.5674 17.2609 15.5767C17.2823 15.5859 17.3053 15.5907 17.3286 15.5907C17.3518 15.5907 17.3749 15.5859 17.3962 15.5767C17.4176 15.5674 17.4368 15.5539 17.4527 15.537L18.3041 14.6856C18.3395 14.6501 18.4814 14.6501 18.4814 14.7211C18.5162 14.8489 18.5399 14.9794 18.5524 15.1113C18.5496 15.3276 18.5025 15.5411 18.4141 15.7386C18.3257 15.9361 18.1978 16.1134 18.0383 16.2596C17.8788 16.4058 17.6911 16.5179 17.4867 16.5888C17.2823 16.6597 17.0655 16.6881 16.8497 16.6721Z"
                      fill="#1A3C54"
                    />
                    <path
                      d="M8.62022 11.4221C11.7743 11.4221 14.3313 8.86516 14.3313 5.71104C14.3313 2.55692 11.7743 0 8.62022 0C5.4661 0 2.90918 2.55692 2.90918 5.71104C2.90918 8.86516 5.4661 11.4221 8.62022 11.4221Z"
                      fill="#1A3C54"
                    />
                    <path
                      d="M10.1451 21.1771C11.1028 21.1771 10.5708 20.5031 10.5708 20.5031C9.78698 19.5084 9.29008 18.3184 9.13377 17.0617C8.97747 15.805 9.16772 14.5295 9.68394 13.3731L9.75489 13.2313C9.80338 13.1705 9.83385 13.0974 9.84283 13.0202C9.8518 12.943 9.83892 12.8648 9.80565 12.7946C9.77238 12.7244 9.72006 12.6649 9.65465 12.6229C9.58923 12.581 9.51335 12.5582 9.43564 12.5573C9.15293 12.527 8.86855 12.5152 8.5843 12.5218C6.49828 12.5289 4.48416 13.2849 2.90862 14.6521C1.33309 16.0193 0.300908 17.9068 0 19.971C0 20.3967 0.14189 21.2125 1.48984 21.2125H9.96772C10.0248 21.1921 10.0845 21.1802 10.1451 21.1771Z"
                      fill="#1A3C54"
                    />
                  </svg>