<svg width="27" height="27" viewBox="0 0 29 27" fill="none" xmlns="http://www.w3.org/2000/svg">
<path d="M8.92286 20.0792V22.3069H20.0763V20.0792H8.92286ZM8.92286 16.3614V18.5891H20.0763V16.3614H8.92286ZM2.23078 18.5891H4.46148V24.5391C4.45404 26.346 4.86895 26.7683 6.69217 26.7683H22.307C24.1302 26.7683 24.5377 26.4322 24.5377 24.5391V18.5891H26.7684C28.6645 18.6189 29.0207 18.1973 28.9991 16.3599V8.1807C28.9991 6.43332 28.7165 5.94852 26.7684 5.94852H24.5377V2.23218C24.5593 0.395576 24.2031 0 22.307 0H6.69217C4.90761 0 4.45404 0.425319 4.46148 2.23218V5.94852H2.23078C0.312387 5.94852 8.94962e-05 6.3664 8.94962e-05 8.1807V16.3599C-0.00734615 18.1668 0.446228 18.6189 2.23078 18.5891ZM22.307 24.5376H6.69217V14.8713H22.307V24.5376ZM23.7049 10.7832C23.7049 10.114 24.2403 9.57934 24.9095 9.57934C25.5787 9.57934 26.1141 10.114 26.1141 10.7832C26.1141 11.4524 25.5787 11.9877 24.9095 11.9877C24.2403 11.9877 23.7049 11.4524 23.7049 10.7832ZM6.69217 2.23069H22.307V5.95149H6.69217V2.23069Z" fill="#00897B"/>
</svg>
