<svg
                    width="25"
                    height="25"
                    viewBox="0 0 28 25"
                    fill="none"
                    xmlns="http://www.w3.org/2000/svg"
                  >
                    <path
                      d="M22.635 9.02786C21.7325 9.0247 20.8493 9.28924 20.0971 9.78804C19.3449 10.2868 18.7575 10.9975 18.4092 11.8301C18.0609 12.6627 17.9673 13.5799 18.1403 14.4658C18.3132 15.3516 18.745 16.1662 19.3809 16.8066C20.0169 17.4471 20.8285 17.8845 21.7131 18.0637C22.5976 18.2429 23.5155 18.1558 24.3505 17.8133C25.1856 17.4708 25.9003 16.8885 26.4044 16.1398C26.9085 15.3911 27.1792 14.5098 27.1824 13.6072C27.1807 12.3988 26.7021 11.2398 25.8506 10.3822C24.9991 9.52472 23.8435 9.03799 22.635 9.02786ZM23.4356 13.9915C23.3153 13.9918 23.1959 13.9701 23.0833 13.9275L21.3541 15.6567C21.26 15.7512 21.1348 15.8081 21.0018 15.8169C20.8417 15.8169 20.7136 15.7848 20.6496 15.6567C20.5563 15.5504 20.5049 15.4139 20.5049 15.2725C20.5049 15.1311 20.5563 14.9945 20.6496 14.8882L22.3788 13.1589C22.3137 12.9514 22.2968 12.7318 22.3293 12.5167C22.3617 12.3017 22.4428 12.0968 22.5663 11.9178C22.6897 11.7387 22.8524 11.5902 23.0419 11.4834C23.2313 11.3766 23.4427 11.3144 23.6598 11.3015C23.7801 11.3013 23.8995 11.323 24.012 11.3656C24.0761 11.3656 24.0761 11.4296 24.0441 11.4937L23.2435 12.2622C23.2283 12.2732 23.2159 12.2877 23.2073 12.3044C23.1988 12.3211 23.1943 12.3396 23.1943 12.3583C23.1943 12.3771 23.1988 12.3956 23.2073 12.4123C23.2159 12.429 23.2283 12.4434 23.2435 12.4544L23.7558 12.9668C23.7702 12.9821 23.7876 12.9943 23.8069 13.0026C23.8261 13.011 23.8469 13.0153 23.8679 13.0153C23.8889 13.0153 23.9097 13.011 23.929 13.0026C23.9483 12.9943 23.9656 12.9821 23.98 12.9668L24.7486 12.1982C24.7806 12.1662 24.9087 12.1662 24.9087 12.2302C24.9401 12.3456 24.9615 12.4634 24.9727 12.5825C24.9702 12.7778 24.9277 12.9705 24.8479 13.1488C24.7681 13.3271 24.6527 13.4872 24.5087 13.6192C24.3647 13.7512 24.1952 13.8523 24.0107 13.9163C23.8261 13.9804 23.6304 14.006 23.4356 13.9915Z"
                      fill="#36A1EA"
                    />
                    <path
                      d="M9.45833 18.0833L4.58333 25L3.33333 21.6667H0L4.25 15.875C5.08333 16.375 5.95833 16.4583 6.58333 16.5833C6.79167 16.625 7.04167 16.6667 7.16667 16.6667C7.25 16.7083 7.45833 16.875 7.58333 17C8.08333 17.3333 8.70833 17.8333 9.45833 18.0833ZM17.4167 15.875C16.5833 16.375 15.7083 16.4583 15.0833 16.5833C14.875 16.625 14.5833 16.6667 14.4583 16.6667C14.375 16.7083 14.1667 16.875 14.0417 17C13.5833 17.3333 13 17.8333 12.2083 18.0833L17.0833 25L18.3333 21.6667H21.6667L17.4167 15.875ZM10.8333 5C9.20833 5 7.91667 6.29167 7.91667 7.91667C7.91667 9.54167 9.20833 10.8333 10.8333 10.8333C12.4583 10.8333 13.75 9.54167 13.75 7.91667C13.75 6.29167 12.4583 5 10.8333 5ZM18.75 7.91667C18.75 8.91667 17.6667 9.70833 17.2917 10.5833C16.9167 11.5 17.125 12.8333 16.4167 13.5C15.75 14.1667 14.4167 14 13.5 14.375C12.625 14.75 11.8333 15.8333 10.8333 15.8333C9.83333 15.8333 9.04167 14.75 8.16667 14.375C7.25 14 5.91667 14.2083 5.25 13.5C4.58333 12.8333 4.75 11.5 4.375 10.5833C4 9.70833 2.91667 8.91667 2.91667 7.91667C2.91667 6.91667 4 6.125 4.375 5.25C4.75 4.33333 4.54167 3 5.25 2.33333C5.91667 1.66667 7.25 1.83333 8.16667 1.45833C9.04167 1.08333 9.83333 0 10.8333 0C11.8333 0 12.625 1.08333 13.5 1.45833C14.4167 1.83333 15.75 1.625 16.4167 2.33333C17.0833 3 16.9167 4.33333 17.2917 5.25C17.6667 6.125 18.75 6.91667 18.75 7.91667ZM16.25 7.91667C16.25 4.91667 13.8333 2.5 10.8333 2.5C7.83333 2.5 5.41667 4.91667 5.41667 7.91667C5.41667 10.9167 7.83333 13.3333 10.8333 13.3333C13.8333 13.3333 16.25 10.9167 16.25 7.91667Z"
                      fill="#36A1EA"
                    />
                  </svg>